<svg xmlns="http://www.w3.org/2000/svg" width="1120" height="900" viewBox="0 0 1120 900" font-family="'Segoe UI','Microsoft YaHei','PingFang SC',system-ui,sans-serif">
  <defs>
    <filter id="l_panel" x="-5%" y="-8%" width="110%" height="116%">
      <feDropShadow dx="0" dy="6" stdDeviation="16" flood-color="#1A2233" flood-opacity="0.16"/>
    </filter>
    <linearGradient id="l_brand" x1="0" y1="0" x2="1" y2="1">
      <stop offset="0" stop-color="#4F7BFF"/><stop offset="1" stop-color="#3358E0"/>
    </linearGradient>
  </defs>

  <rect width="1120" height="900" fill="#EEF1F6"/>
  <text x="40" y="46" font-size="22" font-weight="700" fill="#1A2233">打印日志 Print Log · 重构方案</text>
  <text x="40" y="70" font-size="13" fill="#6B7382">列、筛选、分页、重打逻辑全部保留；状态/类型改为语义色徽章，表头与筛选区做层级化处理。</text>

  <!-- ============ BEFORE ============ -->
  <text x="40" y="100" font-size="13" font-weight="600" fill="#9AA3B2">当前 BEFORE</text>
  <g filter="url(#l_panel)"><rect x="40" y="110" width="1040" height="330" rx="8" fill="#FFFFFF"/></g>
  <!-- filter row -->
  <g font-size="12" fill="#5B6472">
    <text x="64" y="146">时间：</text>
    <rect x="100" y="132" width="240" height="30" rx="4" fill="#FFFFFF" stroke="#DCDFE6"/>
    <text x="360" y="146">连接类型：</text>
    <rect x="424" y="132" width="120" height="30" rx="4" fill="#FFFFFF" stroke="#DCDFE6"/>
    <text x="564" y="146">状态：</text>
    <rect x="604" y="132" width="120" height="30" rx="4" fill="#FFFFFF" stroke="#DCDFE6"/>
    <rect x="744" y="132" width="64" height="30" rx="4" fill="#3358E0"/>
    <text x="776" y="152" fill="#FFFFFF" text-anchor="middle">搜索</text>
    <rect x="816" y="132" width="64" height="30" rx="4" fill="#F56C6C"/>
    <text x="848" y="152" fill="#FFFFFF" text-anchor="middle">清空</text>
  </g>
  <!-- table header -->
  <rect x="64" y="178" width="992" height="30" fill="#F5F7FA" stroke="#EBEEF5"/>
  <g font-size="12" fill="#5B6472" text-anchor="middle">
    <text x="96" y="198">序号</text><text x="184" y="198">时间</text><text x="300" y="198">连接类型</text>
    <text x="392" y="198">打印机</text><text x="492" y="198">模板 ID</text><text x="584" y="198">页数</text>
    <text x="660" y="198">状态</text><text x="800" y="198">错误信息</text><text x="1000" y="198">操作</text>
  </g>
  <!-- rows -->
  <g font-size="12" fill="#1A2233" text-anchor="middle">
    <rect x="64" y="208" width="992" height="30" fill="#FFFFFF" stroke="#EBEEF5"/>
    <text x="96" y="227">1</text><text x="184" y="227">2026/06/10 09:12:03</text><text x="300" y="227">本地</text>
    <text x="392" y="227">HP LaserJet</text><text x="492" y="227">tpl_001</text><text x="584" y="227">2页</text>
    <text x="660" y="227">成功</text><text x="800" y="227" fill="#9AA3B2">—</text>
    <text x="1000" y="227" fill="#C0C4CC">重打</text>
    <rect x="64" y="238" width="992" height="30" fill="#FAFAFA" stroke="#EBEEF5"/>
    <text x="96" y="257">2</text><text x="184" y="257">2026/06/10 09:08:41</text><text x="300" y="257">中转</text>
    <text x="392" y="257">Canon G3800</text><text x="492" y="257">tpl_204</text><text x="584" y="257">1页</text>
    <text x="660" y="257" fill="#1A2233">失败</text><text x="800" y="257" fill="#1A2233" font-size="11">printer offline</text>
    <text x="1000" y="257" fill="#3358E0">重打</text>
    <rect x="64" y="268" width="992" height="30" fill="#FFFFFF" stroke="#EBEEF5"/>
    <text x="96" y="287">3</text><text x="184" y="287">2026/06/10 08:55:19</text><text x="300" y="287">本地</text>
    <text x="392" y="287">EPSON L3153</text><text x="492" y="287">tpl_087</text><text x="584" y="287">5页</text>
    <text x="660" y="287">成功</text><text x="800" y="287" fill="#9AA3B2">—</text>
    <text x="1000" y="287" fill="#3358E0">重打</text>
  </g>
  <text x="1040" y="420" font-size="12" fill="#5B6472" text-anchor="end">共 128 条  · 20/页  ‹ 1 2 3 ›</text>
  <text x="40" y="466" font-size="11" fill="#B23B3B">· 成功/失败为纯文字、无视觉区分；表头与数据对比弱；筛选与表格挤在同一视觉层</text>

  <!-- ============ AFTER ============ -->
  <text x="40" y="510" font-size="13" font-weight="600" fill="#3358E0">重构后 AFTER</text>
  <g filter="url(#l_panel)"><rect x="40" y="520" width="1040" height="330" rx="12" fill="#F4F6FA"/></g>
  <!-- filter card -->
  <rect x="60" y="540" width="1000" height="52" rx="12" fill="#FFFFFF"/>
  <g font-size="12">
    <rect x="76" y="554" width="248" height="32" rx="8" fill="#F4F6FA" stroke="#E6E9F0"/>
    <g transform="translate(88,564)" stroke="#7A8396" stroke-width="1.4" fill="none"><circle cx="5" cy="5" r="5"/><path d="M5 2 v3 h2"/></g>
    <text x="104" y="574" fill="#5B6472">开始 — 结束</text>
    <rect x="336" y="554" width="120" height="32" rx="8" fill="#F4F6FA" stroke="#E6E9F0"/>
    <text x="350" y="574" fill="#5B6472">连接类型 ▾</text>
    <rect x="468" y="554" width="120" height="32" rx="8" fill="#F4F6FA" stroke="#E6E9F0"/>
    <text x="482" y="574" fill="#5B6472">状态 ▾</text>
    <rect x="884" y="554" width="76" height="32" rx="8" fill="url(#l_brand)"/>
    <text x="922" y="575" fill="#FFFFFF" font-weight="600" text-anchor="middle">搜索</text>
    <rect x="968" y="554" width="76" height="32" rx="8" fill="#FFFFFF" stroke="#F2C2C2"/>
    <text x="1006" y="575" fill="#DC2626" text-anchor="middle">清空</text>
  </g>
  <!-- table card -->
  <rect x="60" y="604" width="1000" height="200" rx="12" fill="#FFFFFF"/>
  <!-- header -->
  <rect x="60" y="604" width="1000" height="36" rx="12" fill="#F7F9FC"/>
  <rect x="60" y="628" width="1000" height="12" fill="#F7F9FC"/>
  <g font-size="11" font-weight="600" fill="#9AA3B2" text-anchor="middle" letter-spacing="0.5">
    <text x="96" y="626">序号</text><text x="190" y="626">时间</text><text x="300" y="626">类型</text>
    <text x="392" y="626">打印机</text><text x="492" y="626">模板 ID</text><text x="580" y="626">页数</text>
    <text x="660" y="626">状态</text><text x="800" y="626">错误信息</text><text x="1004" y="626">操作</text>
  </g>
  <rect x="60" y="640" width="1000" height="1" fill="#EEF1F6"/>
  <!-- rows -->
  <g font-size="12" text-anchor="middle">
    <!-- row1 success -->
    <text x="96" y="664" fill="#9AA3B2">1</text>
    <text x="190" y="664" fill="#1A2233" font-family="monospace" font-size="11">06/10 09:12:03</text>
    <rect x="278" y="652" width="44" height="20" rx="10" fill="#EEF2FF"/><text x="300" y="666" fill="#3358E0" font-size="11">本地</text>
    <text x="392" y="664" fill="#1A2233">HP LaserJet</text><text x="492" y="664" fill="#5B6472" font-family="monospace" font-size="11">tpl_001</text>
    <text x="580" y="664" fill="#1A2233">2</text>
    <rect x="638" y="652" width="44" height="20" rx="10" fill="#E7F6EC"/><circle cx="652" cy="662" r="3" fill="#16A34A"/><text x="666" y="666" fill="#16823C" font-size="11">成功</text>
    <text x="800" y="664" fill="#C2C8D2">—</text>
    <text x="1004" y="664" fill="#C0C4CC">重打</text>
    <rect x="76" y="676" width="968" height="1" fill="#F2F4F8"/>
    <!-- row2 failed -->
    <text x="96" y="700" fill="#9AA3B2">2</text>
    <text x="190" y="700" fill="#1A2233" font-family="monospace" font-size="11">06/10 09:08:41</text>
    <rect x="276" y="688" width="48" height="20" rx="10" fill="#FEF3E2"/><text x="300" y="702" fill="#B5740F" font-size="11">中转</text>
    <text x="392" y="700" fill="#1A2233">Canon G3800</text><text x="492" y="700" fill="#5B6472" font-family="monospace" font-size="11">tpl_204</text>
    <text x="580" y="700" fill="#1A2233">1</text>
    <rect x="638" y="688" width="44" height="20" rx="10" fill="#FDECEC"/><circle cx="652" cy="698" r="3" fill="#DC2626"/><text x="666" y="702" fill="#C0392B" font-size="11">失败</text>
    <text x="800" y="700" fill="#C0392B" font-size="11">printer offline</text>
    <rect x="982" y="690" width="44" height="22" rx="7" fill="#EAF0FE"/><text x="1004" y="705" fill="#3358E0" font-size="11">重打</text>
    <rect x="76" y="712" width="968" height="1" fill="#F2F4F8"/>
    <!-- row3 success -->
    <text x="96" y="736" fill="#9AA3B2">3</text>
    <text x="190" y="736" fill="#1A2233" font-family="monospace" font-size="11">06/10 08:55:19</text>
    <rect x="278" y="724" width="44" height="20" rx="10" fill="#EEF2FF"/><text x="300" y="738" fill="#3358E0" font-size="11">本地</text>
    <text x="392" y="736" fill="#1A2233">EPSON L3153</text><text x="492" y="736" fill="#5B6472" font-family="monospace" font-size="11">tpl_087</text>
    <text x="580" y="736" fill="#1A2233">5</text>
    <rect x="638" y="724" width="44" height="20" rx="10" fill="#E7F6EC"/><circle cx="652" cy="734" r="3" fill="#16A34A"/><text x="666" y="738" fill="#16823C" font-size="11">成功</text>
    <text x="800" y="736" fill="#C2C8D2">—</text>
    <rect x="982" y="726" width="44" height="22" rx="7" fill="#EAF0FE"/><text x="1004" y="741" fill="#3358E0" font-size="11">重打</text>
  </g>
  <!-- pagination -->
  <text x="76" y="788" font-size="12" fill="#9AA3B2">共 128 条</text>
  <g font-size="12" text-anchor="middle">
    <text x="858" y="788" fill="#5B6472">20/页</text>
    <rect x="906" y="776" width="24" height="22" rx="6" fill="#FFFFFF" stroke="#E6E9F0"/><text x="918" y="791" fill="#5B6472">‹</text>
    <rect x="934" y="776" width="24" height="22" rx="6" fill="url(#l_brand)"/><text x="946" y="791" fill="#FFFFFF">1</text>
    <rect x="962" y="776" width="24" height="22" rx="6" fill="#FFFFFF" stroke="#E6E9F0"/><text x="974" y="791" fill="#5B6472">2</text>
    <rect x="990" y="776" width="24" height="22" rx="6" fill="#FFFFFF" stroke="#E6E9F0"/><text x="1002" y="791" fill="#5B6472">3</text>
    <rect x="1018" y="776" width="24" height="22" rx="6" fill="#FFFFFF" stroke="#E6E9F0"/><text x="1030" y="791" fill="#5B6472">›</text>
  </g>
  <text x="40" y="884" font-size="11" fill="#2E7D46">· 状态/类型用语义色徽章；筛选区与表格分卡分层；时间/ID 用等宽字体；重打按钮态明确（可用/禁用）</text>
</svg>
